<?xml version="1.0" encoding="UTF-8" standalone="no"?>
<!-- Created with Inkscape (http://www.inkscape.org/) -->

<svg
   width="210mm"
   height="297mm"
   viewBox="0 0 210 297"
   version="1.1"
   id="svg5"
   inkscape:version="1.2.2 (732a01da63, 2022-12-09)"
   sodipodi:docname="IconInkscape.svg"
   inkscape:export-filename="Icon.svg"
   inkscape:export-xdpi="5.4734006"
   inkscape:export-ydpi="5.4734006"
   xmlns:inkscape="http://www.inkscape.org/namespaces/inkscape"
   xmlns:sodipodi="http://sodipodi.sourceforge.net/DTD/sodipodi-0.dtd"
   xmlns="http://www.w3.org/2000/svg"
   xmlns:svg="http://www.w3.org/2000/svg">
  <sodipodi:namedview
     id="namedview7"
     pagecolor="#ffffff"
     bordercolor="#000000"
     borderopacity="0.25"
     inkscape:showpageshadow="2"
     inkscape:pageopacity="0.0"
     inkscape:pagecheckerboard="0"
     inkscape:deskcolor="#d1d1d1"
     inkscape:document-units="mm"
     showgrid="false"
     showguides="true"
     inkscape:zoom="0.57502565"
     inkscape:cx="382.59163"
     inkscape:cy="560.84455"
     inkscape:window-width="1500"
     inkscape:window-height="978"
     inkscape:window-x="-6"
     inkscape:window-y="-6"
     inkscape:window-maximized="1"
     inkscape:current-layer="layer1">
    <sodipodi:guide
       position="105,96.8872"
       orientation="1,0"
       id="guide8819"
       inkscape:locked="false" />
  </sodipodi:namedview>
  <defs
     id="defs2" />
  <g
     inkscape:label="Layer 1"
     inkscape:groupmode="layer"
     id="layer1">
    <path
       id="path4352"
       style="fill:#00e4cb;stroke:#00e4cb;stroke-width:1.7;stroke-opacity:1;fill-opacity:1"
       d="M 104.99979 96.887109 A 51.612801 51.612801 0 0 0 53.387439 148.49998 A 51.612801 51.612801 0 0 0 104.99979 200.11285 L 104.99979 96.887109 z " />
    <path
       id="path14024"
       style="fill:#ff0000;stroke:#e40000;stroke-width:1.7"
       d="M 105.85,65.059587 V 168.28533 A 51.612801,51.612801 0 0 0 157.46287,116.67246 51.612801,51.612801 0 0 0 105.85,65.059587 Z" />
    <rect
       style="fill:#000000;fill-opacity:1;stroke:#0f1c00;stroke-width:1.7;stroke-opacity:1"
       id="rect14807"
       width="80.798622"
       height="34.969452"
       x="64.600685"
       y="109.04948" />
    <path
       style="fill:#d6d6d6;fill-opacity:1;stroke:#d6d6d6;stroke-width:1.7;stroke-opacity:1"
       d="M 131.65643,108.19947 V 96.0371 L 104.99979,96.887108 79.193614,96.0371 v 12.16237 h 2.018342 L 81.176592,97.607124 105,98.501855 l 24.00408,-1.016741 0.0407,10.714356 z"
       id="path16789" />
    <path
       id="path18196"
       style="fill:#d6d6d6;fill-opacity:1;stroke:#d6d6d6;stroke-width:1.7;stroke-opacity:1"
       d="m 118.90552,114.97282 a 2.8839213,3.0129285 62.170709 0 0 -1.41145,3.76092 0.46011651,22.224606 62.170709 0 0 -17.44041,8.93204 0.46011651,22.224606 62.170709 0 0 -19.43934,10.78197 0.46011651,22.224606 62.170709 0 0 19.869,-9.96806 0.46011651,22.224606 62.170709 0 0 17.21295,-9.36184 2.8839213,3.0129285 62.170709 0 0 3.90204,0.95596 2.8839213,3.0129285 62.170709 0 0 1.5451,-1.93701 l -2.07249,1.09405 -1.76688,-3.34704 2.07477,-1.09526 a 2.8839213,3.0129285 62.170709 0 0 -2.47329,0.18427 z" />
  </g>
</svg>
